solid csg.js
facet normal -1 0 0
outer loop
vertex 0 0 0
vertex 0 0 11
vertex 0 39 11
endloop
endfacet
facet normal -1 0 0
outer loop
vertex 0 0 0
vertex 0 39 11
vertex 0 39 0
endloop
endfacet
facet normal 0 1 0
outer loop
vertex 0 39 0
vertex 0 39 11
vertex 29.8 39 11
endloop
endfacet
facet normal 0 1 0
outer loop
vertex 0 39 0
vertex 29.8 39 11
vertex 29.8 39 0
endloop
endfacet
facet normal 1 0 0
outer loop
vertex 2 30.5 0
vertex 2 30.5 3.5
vertex 2 8.5 3.5
endloop
endfacet
facet normal 1 0 0
outer loop
vertex 2 30.5 0
vertex 2 8.5 3.5
vertex 2 8.5 0
endloop
endfacet
facet normal 1 0 0
outer loop
vertex 2 37 3.5
vertex 2 37 4.5
vertex 2 2 4.5
endloop
endfacet
facet normal 1 0 0
outer loop
vertex 2 37 3.5
vertex 2 2 4.5
vertex 2 2 3.5
endloop
endfacet
facet normal 1 0 0
outer loop
vertex 2 19.5 4.5
vertex 2 19.5 4.7
vertex 2 2 4.7
endloop
endfacet
facet normal 1 0 0
outer loop
vertex 2 19.5 4.5
vertex 2 2 4.7
vertex 2 2 4.5
endloop
endfacet
facet normal 1 0 0
outer loop
vertex 2 37 4.5
vertex 2 37 4.7
vertex 2 22.5 4.7
endloop
endfacet
facet normal 1 0 0
outer loop
vertex 2 37 4.5
vertex 2 22.5 4.7
vertex 2 22.5 4.5
endloop
endfacet
facet normal 1 0 0
outer loop
vertex 2 37 4.7
vertex 2 37 9
vertex 2 2 9
endloop
endfacet
facet normal 1 0 0
outer loop
vertex 2 37 4.7
vertex 2 2 9
vertex 2 2 4.7
endloop
endfacet
facet normal 1 0 0
outer loop
vertex 2 13 9
vertex 2 13 10
vertex 2 2 10
endloop
endfacet
facet normal 1 0 0
outer loop
vertex 2 13 9
vertex 2 2 10
vertex 2 2 9
endloop
endfacet
facet normal 1 0 0
outer loop
vertex 2 23 9
vertex 2 23 10
vertex 2 17 10
endloop
endfacet
facet normal 1 0 0
outer loop
vertex 2 23 9
vertex 2 17 10
vertex 2 17 9
endloop
endfacet
facet normal 1 0 0
outer loop
vertex 2 37 9
vertex 2 37 10
vertex 2 27 10
endloop
endfacet
facet normal 1 0 0
outer loop
vertex 2 37 9
vertex 2 27 10
vertex 2 27 9
endloop
endfacet
facet normal 1 0 0
outer loop
vertex 2 37 10
vertex 2 37 11
vertex 2 2 11
endloop
endfacet
facet normal 1 0 0
outer loop
vertex 2 37 10
vertex 2 2 11
vertex 2 2 10
endloop
endfacet
facet normal 0 -1 0
outer loop
vertex 23.9 37 2
vertex 23.9 37 3.5
vertex 5.9 37 3.5
endloop
endfacet
facet normal 0 -1 0
outer loop
vertex 23.9 37 2
vertex 5.9 37 3.5
vertex 5.9 37 2
endloop
endfacet
facet normal 0 -1 0
outer loop
vertex 27.8 37 3.5
vertex 27.8 37 11
vertex 2 37 11
endloop
endfacet
facet normal 0 -1 0
outer loop
vertex 27.8 37 3.5
vertex 2 37 11
vertex 2 37 3.5
endloop
endfacet
facet normal 0 0 1
outer loop
vertex 29.8 0 11
vertex 29.8 2 11
vertex 0 2 11
endloop
endfacet
facet normal 0 0 1
outer loop
vertex 29.8 0 11
vertex 0 2 11
vertex 0 0 11
endloop
endfacet
facet normal 0 0 1
outer loop
vertex 2 2 11
vertex 2 37 11
vertex 0 37 11
endloop
endfacet
facet normal 0 0 1
outer loop
vertex 2 2 11
vertex 0 37 11
vertex 0 2 11
endloop
endfacet
facet normal 0 0 1
outer loop
vertex 29.8 2 11
vertex 29.8 37 11
vertex 27.8 37 11
endloop
endfacet
facet normal 0 0 1
outer loop
vertex 29.8 2 11
vertex 27.8 37 11
vertex 27.8 2 11
endloop
endfacet
facet normal 0 0 1
outer loop
vertex 29.8 37 11
vertex 29.8 39 11
vertex 0 39 11
endloop
endfacet
facet normal 0 0 1
outer loop
vertex 29.8 37 11
vertex 0 39 11
vertex 0 37 11
endloop
endfacet
facet normal 0 1 0
outer loop
vertex 27.8 3.5 9
vertex 29.8 3.5 9
vertex 29.8 3.5 6.5
endloop
endfacet
facet normal 0 1 0
outer loop
vertex 27.8 3.5 9
vertex 29.8 3.5 6.5
vertex 27.8 3.5 6.5
endloop
endfacet
facet normal 0 -1 0
outer loop
vertex 29.8 31.5 6.5
vertex 29.8 31.5 9
vertex 27.8 31.5 9
endloop
endfacet
facet normal 0 -1 0
outer loop
vertex 29.8 31.5 6.5
vertex 27.8 31.5 9
vertex 27.8 31.5 6.5
endloop
endfacet
facet normal 1 0 0
outer loop
vertex 29.8 39 0
vertex 29.8 39 3.5
vertex 29.8 0 3.5
endloop
endfacet
facet normal 1 0 0
outer loop
vertex 29.8 39 0
vertex 29.8 0 3.5
vertex 29.8 0 0
endloop
endfacet
facet normal 1 0 0
outer loop
vertex 29.8 4 3.5
vertex 29.8 4 6.5
vertex 29.8 0 6.5
endloop
endfacet
facet normal 1 0 0
outer loop
vertex 29.8 4 3.5
vertex 29.8 0 6.5
vertex 29.8 0 3.5
endloop
endfacet
facet normal 1 0 0
outer loop
vertex 29.8 39 3.5
vertex 29.8 39 6.5
vertex 29.8 8 6.5
endloop
endfacet
facet normal 1 0 0
outer loop
vertex 29.8 39 3.5
vertex 29.8 8 6.5
vertex 29.8 8 3.5
endloop
endfacet
facet normal 1 0 0
outer loop
vertex 29.8 3.5 6.5
vertex 29.8 3.5 9
vertex 29.8 0 9
endloop
endfacet
facet normal 1 0 0
outer loop
vertex 29.8 3.5 6.5
vertex 29.8 0 9
vertex 29.8 0 6.5
endloop
endfacet
facet normal 1 0 0
outer loop
vertex 29.8 20 6.5
vertex 29.8 20 9
vertex 29.8 15 9
endloop
endfacet
facet normal 1 0 0
outer loop
vertex 29.8 20 6.5
vertex 29.8 15 9
vertex 29.8 15 6.5
endloop
endfacet
facet normal 1 0 0
outer loop
vertex 29.8 39 6.5
vertex 29.8 39 9
vertex 29.8 31.5 9
endloop
endfacet
facet normal 1 0 0
outer loop
vertex 29.8 39 6.5
vertex 29.8 31.5 9
vertex 29.8 31.5 6.5
endloop
endfacet
facet normal 1 0 0
outer loop
vertex 29.8 39 9
vertex 29.8 39 11
vertex 29.8 0 11
endloop
endfacet
facet normal 1 0 0
outer loop
vertex 29.8 39 9
vertex 29.8 0 11
vertex 29.8 0 9
endloop
endfacet
facet normal -1 0 0
outer loop
vertex 27.8 37 11
vertex 27.8 37 9
vertex 27.8 2 9
endloop
endfacet
facet normal -1 0 0
outer loop
vertex 27.8 37 11
vertex 27.8 2 9
vertex 27.8 2 11
endloop
endfacet
facet normal -1 0 0
outer loop
vertex 27.8 3.5 9
vertex 27.8 3.5 6.5
vertex 27.8 2 6.5
endloop
endfacet
facet normal -1 0 0
outer loop
vertex 27.8 3.5 9
vertex 27.8 2 6.5
vertex 27.8 2 9
endloop
endfacet
facet normal -1 0 0
outer loop
vertex 27.8 37 9
vertex 27.8 37 6.5
vertex 27.8 31.5 6.5
endloop
endfacet
facet normal -1 0 0
outer loop
vertex 27.8 37 9
vertex 27.8 31.5 6.5
vertex 27.8 31.5 9
endloop
endfacet
facet normal -1 0 0
outer loop
vertex 27.8 37 6.5
vertex 27.8 37 4.7
vertex 27.8 8 4.7
endloop
endfacet
facet normal -1 0 0
outer loop
vertex 27.8 37 6.5
vertex 27.8 8 4.7
vertex 27.8 8 6.5
endloop
endfacet
facet normal -1 0 0
outer loop
vertex 27.8 19.5 4.7
vertex 27.8 19.5 4.5
vertex 27.8 8 4.5
endloop
endfacet
facet normal -1 0 0
outer loop
vertex 27.8 19.5 4.7
vertex 27.8 8 4.5
vertex 27.8 8 4.7
endloop
endfacet
facet normal -1 0 0
outer loop
vertex 27.8 37 4.7
vertex 27.8 37 4.5
vertex 27.8 22.5 4.5
endloop
endfacet
facet normal -1 0 0
outer loop
vertex 27.8 37 4.7
vertex 27.8 22.5 4.5
vertex 27.8 22.5 4.7
endloop
endfacet
facet normal -1 0 0
outer loop
vertex 27.8 4 6.5
vertex 27.8 4 3.5
vertex 27.8 2 3.5
endloop
endfacet
facet normal -1 0 0
outer loop
vertex 27.8 4 6.5
vertex 27.8 2 3.5
vertex 27.8 2 6.5
endloop
endfacet
facet normal -1 0 0
outer loop
vertex 27.8 37 4.5
vertex 27.8 37 3.5
vertex 27.8 8 3.5
endloop
endfacet
facet normal -1 0 0
outer loop
vertex 27.8 37 4.5
vertex 27.8 8 3.5
vertex 27.8 8 4.5
endloop
endfacet
facet normal -1 0 0
outer loop
vertex 27.8 30.5 3.5
vertex 27.8 30.5 0
vertex 27.8 8.5 0
endloop
endfacet
facet normal -1 0 0
outer loop
vertex 27.8 30.5 3.5
vertex 27.8 8.5 0
vertex 27.8 8.5 3.5
endloop
endfacet
facet normal 0.8628562094610168 -0.3574067443365932 0.3574067443365933
outer loop
vertex 8.153840789638327 2.1333333333333324 2.2538407896383257
vertex 8.333333333333334 2.566666666666667 2.2538407896383257
vertex 8.153840789638327 2.7461592103616743 2.8666666666666667
endloop
endfacet
facet normal 0.8628562094610168 -0.3574067443365932 0.3574067443365933
outer loop
vertex 8.153840789638327 2.1333333333333324 2.2538407896383257
vertex 8.153840789638327 2.7461592103616743 2.8666666666666667
vertex 7.9 2.1333333333333333 2.8666666666666667
endloop
endfacet
facet normal 0.37796447300922753 -0.15655801081562187 0.9124869568340758
outer loop
vertex 8.766666666666667 2.1333333333333333 2
vertex 8.333333333333334 2.566666666666667 2.2538407896383257
vertex 8.153840789638327 2.1333333333333324 2.2538407896383257
endloop
endfacet
facet normal 0.35740674433659353 -0.8628562094610168 0.35740674433659303
outer loop
vertex 8.333333333333334 2.566666666666667 2.2538407896383257
vertex 8.766666666666667 2.7461592103616748 2.2538407896383257
vertex 8.766666666666667 3 2.8666666666666667
endloop
endfacet
facet normal 0.35740674433659353 -0.8628562094610168 0.35740674433659303
outer loop
vertex 8.333333333333334 2.566666666666667 2.2538407896383257
vertex 8.766666666666667 3 2.8666666666666667
vertex 8.153840789638327 2.7461592103616743 2.8666666666666667
endloop
endfacet
facet normal 0.156558010815622 -0.37796447300922686 0.9124869568340761
outer loop
vertex 8.766666666666667 2.1333333333333333 2
vertex 8.766666666666667 2.7461592103616748 2.2538407896383257
vertex 8.333333333333334 2.566666666666667 2.2538407896383257
endloop
endfacet
facet normal 0 -0.38268343236508984 0.9238795325112867
outer loop
vertex 8.766666666666667 2.7461592103616748 2.2538407896383257
vertex 8.766666666666667 2.1333333333333333 2
vertex 21.03333333333333 2.1333333333333333 2.000000000000002
endloop
endfacet
facet normal 0 -0.38268343236508984 0.9238795325112867
outer loop
vertex 8.766666666666667 2.7461592103616748 2.2538407896383257
vertex 21.03333333333333 2.1333333333333333 2.000000000000002
vertex 21.03333333333333 2.7461592103616748 2.2538407896383257
endloop
endfacet
facet normal 0 -0.923879532511287 0.3826834323650896
outer loop
vertex 8.766666666666667 3 2.8666666666666667
vertex 8.766666666666667 2.7461592103616748 2.2538407896383257
vertex 21.03333333333333 2.7461592103616748 2.2538407896383257
endloop
endfacet
facet normal 0 -0.923879532511287 0.3826834323650896
outer loop
vertex 8.766666666666667 3 2.8666666666666667
vertex 21.03333333333333 2.7461592103616748 2.2538407896383257
vertex 21.03333333333333 3 2.8666666666666667
endloop
endfacet
facet normal -0.35740674433659364 -0.8628562094610166 0.3574067443365933
outer loop
vertex 21.03333333333333 2.7461592103616748 2.2538407896383257
vertex 21.46666666666667 2.566666666666667 2.2538407896383257
vertex 21.646159210361674 2.7461592103616748 2.8666666666666667
endloop
endfacet
facet normal -0.35740674433659364 -0.8628562094610166 0.3574067443365933
outer loop
vertex 21.03333333333333 2.7461592103616748 2.2538407896383257
vertex 21.646159210361674 2.7461592103616748 2.8666666666666667
vertex 21.03333333333333 3 2.8666666666666667
endloop
endfacet
facet normal -0.15655801081562185 -0.37796447300922775 0.9124869568340758
outer loop
vertex 21.03333333333333 2.1333333333333333 2.000000000000002
vertex 21.46666666666667 2.566666666666667 2.2538407896383257
vertex 21.03333333333333 2.7461592103616748 2.2538407896383257
endloop
endfacet
facet normal -0.8628562094610163 -0.3574067443365949 0.35740674433659314
outer loop
vertex 21.46666666666667 2.566666666666667 2.2538407896383257
vertex 21.646159210361674 2.133333333333334 2.253840789638326
vertex 21.9 2.133333333333334 2.866666666666666
endloop
endfacet
facet normal -0.8628562094610163 -0.3574067443365949 0.35740674433659314
outer loop
vertex 21.46666666666667 2.566666666666667 2.2538407896383257
vertex 21.9 2.133333333333334 2.866666666666666
vertex 21.646159210361674 2.7461592103616748 2.8666666666666667
endloop
endfacet
facet normal -0.37796447300922753 -0.1565580108156227 0.9124869568340757
outer loop
vertex 21.03333333333333 2.1333333333333333 2.000000000000002
vertex 21.646159210361674 2.133333333333334 2.253840789638326
vertex 21.46666666666667 2.566666666666667 2.2538407896383257
endloop
endfacet
facet normal -0.9238795325112861 0 0.3826834323650914
outer loop
vertex 21.646159210361674 0 2.2538407896383257
vertex 21.9 0 2.8666666666666667
vertex 21.9 2.133333333333334 2.866666666666666
endloop
endfacet
facet normal -0.9238795325112861 0 0.3826834323650914
outer loop
vertex 21.646159210361674 0 2.2538407896383257
vertex 21.9 2.133333333333334 2.866666666666666
vertex 21.646159210361674 2.133333333333334 2.253840789638326
endloop
endfacet
facet normal -0.3826834323650899 0 0.9238795325112867
outer loop
vertex 21.03333333333333 0 2
vertex 21.646159210361674 0 2.2538407896383257
vertex 21.646159210361674 2.133333333333334 2.253840789638326
endloop
endfacet
facet normal -0.3826834323650899 0 0.9238795325112867
outer loop
vertex 21.03333333333333 0 2
vertex 21.646159210361674 2.133333333333334 2.253840789638326
vertex 21.03333333333333 2.1333333333333333 2.000000000000002
endloop
endfacet
facet normal 0 0 1
outer loop
vertex 21.03333333333333 0 2
vertex 21.03333333333333 2.1333333333333333 2.000000000000002
vertex 8.766666666666667 2.1333333333333333 2
endloop
endfacet
facet normal 0 0 1
outer loop
vertex 21.03333333333333 0 2
vertex 8.766666666666667 2.1333333333333333 2
vertex 8.766666666666667 0 2
endloop
endfacet
facet normal 0 0 1
outer loop
vertex 7 30.5 2
vertex 7 32 2
vertex 5.9 32 2
endloop
endfacet
facet normal 0 0 1
outer loop
vertex 7 30.5 2
vertex 5.9 32 2
vertex 5.9 30.5 2
endloop
endfacet
facet normal 0 0 1
outer loop
vertex 23.9 30.5 2
vertex 23.9 32 2
vertex 11 32 2
endloop
endfacet
facet normal 0 0 1
outer loop
vertex 23.9 30.5 2
vertex 11 32 2
vertex 11 30.5 2
endloop
endfacet
facet normal 0 0 1
outer loop
vertex 23.9 32 2
vertex 23.9 37 2
vertex 5.9 37 2
endloop
endfacet
facet normal 0 0 1
outer loop
vertex 23.9 32 2
vertex 5.9 37 2
vertex 5.9 32 2
endloop
endfacet
facet normal 0.3826834323650903 0 0.9238795325112866
outer loop
vertex 8.153840789638327 0 2.2538407896383257
vertex 8.766666666666667 0 2
vertex 8.766666666666667 2.1333333333333333 2
endloop
endfacet
facet normal 0.3826834323650903 0 0.9238795325112866
outer loop
vertex 8.153840789638327 0 2.2538407896383257
vertex 8.766666666666667 2.1333333333333333 2
vertex 8.153840789638327 2.1333333333333324 2.2538407896383257
endloop
endfacet
facet normal 0.923879532511287 0 0.3826834323650896
outer loop
vertex 7.9 0 2.8666666666666667
vertex 8.153840789638327 0 2.2538407896383257
vertex 8.153840789638327 2.1333333333333324 2.2538407896383257
endloop
endfacet
facet normal 0.923879532511287 0 0.3826834323650896
outer loop
vertex 7.9 0 2.8666666666666667
vertex 8.153840789638327 2.1333333333333324 2.2538407896383257
vertex 7.9 2.1333333333333333 2.8666666666666667
endloop
endfacet
facet normal 0.3826834323650896 -0.923879532511287 0
outer loop
vertex 8.153840789638327 2.7461592103616743 3.5
vertex 8.153840789638327 2.7461592103616743 2.8666666666666667
vertex 8.766666666666667 3 2.8666666666666667
endloop
endfacet
facet normal 0.3826834323650896 -0.923879532511287 0
outer loop
vertex 8.153840789638327 2.7461592103616743 3.5
vertex 8.766666666666667 3 2.8666666666666667
vertex 8.766666666666667 3 3.5
endloop
endfacet
facet normal 0.923879532511287 -0.3826834323650896 0
outer loop
vertex 7.9 2.1333333333333333 3.5
vertex 7.9 2.1333333333333333 2.8666666666666667
vertex 8.153840789638327 2.7461592103616743 2.8666666666666667
endloop
endfacet
facet normal 0.923879532511287 -0.3826834323650896 0
outer loop
vertex 7.9 2.1333333333333333 3.5
vertex 8.153840789638327 2.7461592103616743 2.8666666666666667
vertex 8.153840789638327 2.7461592103616743 3.5
endloop
endfacet
facet normal -0.9238795325112861 -0.3826834323650914 0
outer loop
vertex 21.646159210361674 2.7461592103616748 3.5
vertex 21.646159210361674 2.7461592103616748 2.8666666666666667
vertex 21.9 2.133333333333334 2.866666666666666
endloop
endfacet
facet normal -0.9238795325112861 -0.3826834323650914 0
outer loop
vertex 21.646159210361674 2.7461592103616748 3.5
vertex 21.9 2.133333333333334 2.866666666666666
vertex 21.9 2.133333333333334 3.5
endloop
endfacet
facet normal -0.3826834323650893 -0.9238795325112871 0
outer loop
vertex 21.03333333333333 3.0000000000000004 3.5
vertex 21.03333333333333 3 2.8666666666666667
vertex 21.646159210361674 2.7461592103616748 2.8666666666666667
endloop
endfacet
facet normal -0.3826834323650893 -0.9238795325112871 0
outer loop
vertex 21.03333333333333 3.0000000000000004 3.5
vertex 21.646159210361674 2.7461592103616748 2.8666666666666667
vertex 21.646159210361674 2.7461592103616748 3.5
endloop
endfacet
facet normal 0 -1 0
outer loop
vertex 8.766666666666667 3 3.5
vertex 8.766666666666667 3 2.8666666666666667
vertex 21.03333333333333 3 2.8666666666666667
endloop
endfacet
facet normal 0 -1 0
outer loop
vertex 8.766666666666667 3 3.5
vertex 21.03333333333333 3 2.8666666666666667
vertex 21.03333333333333 3.0000000000000004 3.5
endloop
endfacet
facet normal 1 0 0
outer loop
vertex 7.9 2.1333333333333333 2.8666666666666667
vertex 7.9 2.1333333333333333 3.5
vertex 7.9 0 3.5
endloop
endfacet
facet normal 1 0 0
outer loop
vertex 7.9 2.1333333333333333 2.8666666666666667
vertex 7.9 0 3.5
vertex 7.9 0 2.8666666666666667
endloop
endfacet
facet normal 1 0 0
outer loop
vertex 7.9 2 3.5
vertex 7.9 2 9.133333333333331
vertex 7.9 0 9.133333333333331
endloop
endfacet
facet normal 1 0 0
outer loop
vertex 7.9 2 3.5
vertex 7.9 0 9.133333333333331
vertex 7.9 0 3.5
endloop
endfacet
facet normal -1 0 0
outer loop
vertex 21.9 2 9.133333333333333
vertex 21.9 2 3.5
vertex 21.9 0 3.5
endloop
endfacet
facet normal -1 0 0
outer loop
vertex 21.9 2 9.133333333333333
vertex 21.9 0 3.5
vertex 21.9 0 9.133333333333333
endloop
endfacet
facet normal -1 0 0
outer loop
vertex 21.9 2.133333333333334 3.5
vertex 21.9 2.133333333333334 2.866666666666666
vertex 21.9 0 2.8666666666666667
endloop
endfacet
facet normal -1 0 0
outer loop
vertex 21.9 2.133333333333334 3.5
vertex 21.9 0 2.8666666666666667
vertex 21.9 0 3.5
endloop
endfacet
facet normal -0.923879532511286 0 -0.3826834323650917
outer loop
vertex 21.9 2 9.133333333333333
vertex 21.9 0 9.133333333333333
vertex 21.646159210361674 0 9.746159210361675
endloop
endfacet
facet normal -0.923879532511286 0 -0.3826834323650917
outer loop
vertex 21.9 2 9.133333333333333
vertex 21.646159210361674 0 9.746159210361675
vertex 21.646159210361674 2 9.746159210361675
endloop
endfacet
facet normal 0.9238795325112861 0 -0.3826834323650914
outer loop
vertex 8.153840789638327 2 9.746159210361675
vertex 8.153840789638327 0 9.746159210361675
vertex 7.9 0 9.133333333333331
endloop
endfacet
facet normal 0.9238795325112861 0 -0.3826834323650914
outer loop
vertex 8.153840789638327 2 9.746159210361675
vertex 7.9 0 9.133333333333331
vertex 7.9 2 9.133333333333331
endloop
endfacet
facet normal 0.38268343236508773 0 -0.9238795325112876
outer loop
vertex 8.766666666666667 2 10
vertex 8.766666666666667 0 10
vertex 8.153840789638327 0 9.746159210361675
endloop
endfacet
facet normal 0.38268343236508773 0 -0.9238795325112876
outer loop
vertex 8.766666666666667 2 10
vertex 8.153840789638327 0 9.746159210361675
vertex 8.153840789638327 2 9.746159210361675
endloop
endfacet
facet normal 0 0 -1
outer loop
vertex 2 27 10
vertex 2 23 10
vertex 1 23 10
endloop
endfacet
facet normal 0 0 -1
outer loop
vertex 2 27 10
vertex 1 23 10
vertex 1 27 10
endloop
endfacet
facet normal 0 0 -1
outer loop
vertex 2 17 10
vertex 2 13 10
vertex 1 13 10
endloop
endfacet
facet normal 0 0 -1
outer loop
vertex 2 17 10
vertex 1 13 10
vertex 1 17 10
endloop
endfacet
facet normal 0 0 -1
outer loop
vertex 21.03333333333333 2 10
vertex 21.03333333333333 0 10
vertex 8.766666666666667 0 10
endloop
endfacet
facet normal 0 0 -1
outer loop
vertex 21.03333333333333 2 10
vertex 8.766666666666667 0 10
vertex 8.766666666666667 2 10
endloop
endfacet
facet normal -0.3826834323650914 0 -0.9238795325112861
outer loop
vertex 21.646159210361674 2 9.746159210361675
vertex 21.646159210361674 0 9.746159210361675
vertex 21.03333333333333 0 10
endloop
endfacet
facet normal -0.3826834323650914 0 -0.9238795325112861
outer loop
vertex 21.646159210361674 2 9.746159210361675
vertex 21.03333333333333 0 10
vertex 21.03333333333333 2 10
endloop
endfacet
facet normal 0 -1 0
outer loop
vertex 29.8 0 0
vertex 29.8 0 2
vertex 0 0 2
endloop
endfacet
facet normal 0 -1 0
outer loop
vertex 29.8 0 0
vertex 0 0 2
vertex 0 0 0
endloop
endfacet
facet normal 0 -1 0
outer loop
vertex 8.766666666666667 0 2
vertex 8.153840789638327 0 2.2538407896383257
vertex 0 0 2.2538407896383257
endloop
endfacet
facet normal 0 -1 0
outer loop
vertex 8.766666666666667 0 2
vertex 0 0 2.2538407896383257
vertex 0 0 2
endloop
endfacet
facet normal 0 -1 0
outer loop
vertex 29.8 0 2
vertex 29.8 0 2.2538407896383257
vertex 21.646159210361674 0 2.2538407896383257
endloop
endfacet
facet normal 0 -1 0
outer loop
vertex 29.8 0 2
vertex 21.646159210361674 0 2.2538407896383257
vertex 21.03333333333333 0 2
endloop
endfacet
facet normal 0 -1 0
outer loop
vertex 8.153840789638327 0 2.2538407896383257
vertex 7.9 0 2.8666666666666667
vertex 0 0 2.8666666666666667
endloop
endfacet
facet normal 0 -1 0
outer loop
vertex 8.153840789638327 0 2.2538407896383257
vertex 0 0 2.8666666666666667
vertex 0 0 2.2538407896383257
endloop
endfacet
facet normal 0 -1 0
outer loop
vertex 29.8 0 2.2538407896383257
vertex 29.8 0 2.8666666666666667
vertex 21.9 0 2.8666666666666667
endloop
endfacet
facet normal 0 -1 0
outer loop
vertex 29.8 0 2.2538407896383257
vertex 21.9 0 2.8666666666666667
vertex 21.646159210361674 0 2.2538407896383257
endloop
endfacet
facet normal 0 -1 0
outer loop
vertex 7.9 0 2.8666666666666667
vertex 7.9 0 9.133333333333331
vertex 0 0 9.133333333333331
endloop
endfacet
facet normal 0 -1 0
outer loop
vertex 7.9 0 2.8666666666666667
vertex 0 0 9.133333333333331
vertex 0 0 2.8666666666666667
endloop
endfacet
facet normal 0 -1 0
outer loop
vertex 29.8 0 2.8666666666666667
vertex 29.8 0 9.133333333333331
vertex 21.9 0 9.133333333333333
endloop
endfacet
facet normal 0 -1 0
outer loop
vertex 29.8 0 2.8666666666666667
vertex 21.9 0 9.133333333333333
vertex 21.9 0 2.8666666666666667
endloop
endfacet
facet normal 0 -1 0
outer loop
vertex 7.9 0 9.133333333333331
vertex 8.153840789638327 0 9.746159210361675
vertex 0 0 9.746159210361675
endloop
endfacet
facet normal 0 -1 0
outer loop
vertex 7.9 0 9.133333333333331
vertex 0 0 9.746159210361675
vertex 0 0 9.133333333333331
endloop
endfacet
facet normal 0 -1 0
outer loop
vertex 29.8 0 9.133333333333331
vertex 29.8 0 9.746159210361675
vertex 21.646159210361674 0 9.746159210361675
endloop
endfacet
facet normal 0 -1 0
outer loop
vertex 29.8 0 9.133333333333331
vertex 21.646159210361674 0 9.746159210361675
vertex 21.9 0 9.133333333333333
endloop
endfacet
facet normal 0 -1 0
outer loop
vertex 8.153840789638327 0 9.746159210361675
vertex 8.766666666666667 0 10
vertex 0 0 10
endloop
endfacet
facet normal 0 -1 0
outer loop
vertex 8.153840789638327 0 9.746159210361675
vertex 0 0 10
vertex 0 0 9.746159210361675
endloop
endfacet
facet normal 0 -1 0
outer loop
vertex 29.8 0 9.746159210361675
vertex 29.8 0 10
vertex 21.03333333333333 0 10
endloop
endfacet
facet normal 0 -1 0
outer loop
vertex 29.8 0 9.746159210361675
vertex 21.03333333333333 0 10
vertex 21.646159210361674 0 9.746159210361675
endloop
endfacet
facet normal 0 -1 0
outer loop
vertex 29.8 0 10
vertex 29.8 0 11
vertex 0 0 11
endloop
endfacet
facet normal 0 -1 0
outer loop
vertex 29.8 0 10
vertex 0 0 11
vertex 0 0 10
endloop
endfacet
facet normal 0 0 1
outer loop
vertex 7.9 2 3.5
vertex 7.9 2.1333333333333333 3.5
vertex 2 2.1333333333333333 3.5
endloop
endfacet
facet normal 0 0 1
outer loop
vertex 7.9 2 3.5
vertex 2 2.1333333333333333 3.5
vertex 2 2 3.5
endloop
endfacet
facet normal 0 0 1
outer loop
vertex 27.8 2 3.5
vertex 27.8 2.1333333333333333 3.5
vertex 21.9 2.133333333333334 3.5
endloop
endfacet
facet normal 0 0 1
outer loop
vertex 27.8 2 3.5
vertex 21.9 2.133333333333334 3.5
vertex 21.9 2 3.5
endloop
endfacet
facet normal 0 0 1
outer loop
vertex 7.9 2.1333333333333333 3.5
vertex 8.153840789638327 2.7461592103616743 3.5
vertex 2 2.7461592103616743 3.5
endloop
endfacet
facet normal 0 0 1
outer loop
vertex 7.9 2.1333333333333333 3.5
vertex 2 2.7461592103616743 3.5
vertex 2 2.1333333333333333 3.5
endloop
endfacet
facet normal 0 0 1
outer loop
vertex 27.8 2.1333333333333333 3.5
vertex 27.8 2.7461592103616743 3.5
vertex 21.646159210361674 2.7461592103616748 3.5
endloop
endfacet
facet normal 0 0 1
outer loop
vertex 27.8 2.1333333333333333 3.5
vertex 21.646159210361674 2.7461592103616748 3.5
vertex 21.9 2.133333333333334 3.5
endloop
endfacet
facet normal 0 0 1
outer loop
vertex 8.153840789638327 2.7461592103616743 3.5
vertex 8.766666666666667 3 3.5
vertex 2 3 3.5
endloop
endfacet
facet normal 0 0 1
outer loop
vertex 8.153840789638327 2.7461592103616743 3.5
vertex 2 3 3.5
vertex 2 2.7461592103616743 3.5
endloop
endfacet
facet normal 0 0 1
outer loop
vertex 27.8 2.7461592103616743 3.5
vertex 27.8 3 3.5
vertex 21.03333333333333 3.0000000000000004 3.5
endloop
endfacet
facet normal 0 0 1
outer loop
vertex 27.8 2.7461592103616743 3.5
vertex 21.03333333333333 3.0000000000000004 3.5
vertex 21.646159210361674 2.7461592103616748 3.5
endloop
endfacet
facet normal 0 0 1
outer loop
vertex 27.8 3 3.5
vertex 27.8 4 3.5
vertex 2 4 3.5
endloop
endfacet
facet normal 0 0 1
outer loop
vertex 27.8 3 3.5
vertex 2 4 3.5
vertex 2 3 3.5
endloop
endfacet
facet normal 0 0 1
outer loop
vertex 29.8 4 3.5
vertex 29.8 8 3.5
vertex 2 8 3.5
endloop
endfacet
facet normal 0 0 1
outer loop
vertex 29.8 4 3.5
vertex 2 8 3.5
vertex 2 4 3.5
endloop
endfacet
facet normal 0 0 1
outer loop
vertex 27.8 8 3.5
vertex 27.8 8.5 3.5
vertex 2 8.5 3.5
endloop
endfacet
facet normal 0 0 1
outer loop
vertex 27.8 8 3.5
vertex 2 8.5 3.5
vertex 2 8 3.5
endloop
endfacet
facet normal 0 0 1
outer loop
vertex 5.9 30.5 3.5
vertex 5.9 37 3.5
vertex 2 37 3.5
endloop
endfacet
facet normal 0 0 1
outer loop
vertex 5.9 30.5 3.5
vertex 2 37 3.5
vertex 2 30.5 3.5
endloop
endfacet
facet normal 0 0 1
outer loop
vertex 27.8 30.5 3.5
vertex 27.8 37 3.5
vertex 23.9 37 3.5
endloop
endfacet
facet normal 0 0 1
outer loop
vertex 27.8 30.5 3.5
vertex 23.9 37 3.5
vertex 23.9 30.5 3.5
endloop
endfacet
facet normal 0 1 0
outer loop
vertex 27.8 2 11
vertex 27.8 2 10
vertex 2 2 10
endloop
endfacet
facet normal 0 1 0
outer loop
vertex 27.8 2 11
vertex 2 2 10
vertex 2 2 11
endloop
endfacet
facet normal 0 1 0
outer loop
vertex 8.766666666666667 2 10
vertex 8.153840789638327 2 9.746159210361675
vertex 2 2 9.746159210361675
endloop
endfacet
facet normal 0 1 0
outer loop
vertex 8.766666666666667 2 10
vertex 2 2 9.746159210361675
vertex 2 2 10
endloop
endfacet
facet normal 0 1 0
outer loop
vertex 27.8 2 10
vertex 27.8 2 9.746159210361675
vertex 21.646159210361674 2 9.746159210361675
endloop
endfacet
facet normal 0 1 0
outer loop
vertex 27.8 2 10
vertex 21.646159210361674 2 9.746159210361675
vertex 21.03333333333333 2 10
endloop
endfacet
facet normal 0 1 0
outer loop
vertex 8.153840789638327 2 9.746159210361675
vertex 7.9 2 9.133333333333331
vertex 2 2 9.133333333333331
endloop
endfacet
facet normal 0 1 0
outer loop
vertex 8.153840789638327 2 9.746159210361675
vertex 2 2 9.133333333333331
vertex 2 2 9.746159210361675
endloop
endfacet
facet normal 0 1 0
outer loop
vertex 27.8 2 9.746159210361675
vertex 27.8 2 9.133333333333331
vertex 21.9 2 9.133333333333333
endloop
endfacet
facet normal 0 1 0
outer loop
vertex 27.8 2 9.746159210361675
vertex 21.9 2 9.133333333333333
vertex 21.646159210361674 2 9.746159210361675
endloop
endfacet
facet normal 0 1 0
outer loop
vertex 7.9 2 9.133333333333331
vertex 7.9 2 3.5
vertex 2 2 3.5
endloop
endfacet
facet normal 0 1 0
outer loop
vertex 7.9 2 9.133333333333331
vertex 2 2 3.5
vertex 2 2 9.133333333333331
endloop
endfacet
facet normal 0 1 0
outer loop
vertex 27.8 2 9.133333333333331
vertex 27.8 2 3.5
vertex 21.9 2 3.5
endloop
endfacet
facet normal 0 1 0
outer loop
vertex 27.8 2 9.133333333333331
vertex 21.9 2 3.5
vertex 21.9 2 9.133333333333333
endloop
endfacet
facet normal 0 1 0
outer loop
vertex 2 8.5 3.5
vertex 27.8 8.5 3.5
vertex 27.8 8.5 0
endloop
endfacet
facet normal 0 1 0
outer loop
vertex 2 8.5 3.5
vertex 27.8 8.5 0
vertex 2 8.5 0
endloop
endfacet
facet normal 0 0 -1
outer loop
vertex 29.8 39 0
vertex 29.8 32 0
vertex 0 32 0
endloop
endfacet
facet normal 0 0 -1
outer loop
vertex 29.8 39 0
vertex 0 32 0
vertex 0 39 0
endloop
endfacet
facet normal 0 0 -1
outer loop
vertex 7 32 0
vertex 7 30.5 0
vertex 0 30.5 0
endloop
endfacet
facet normal 0 0 -1
outer loop
vertex 7 32 0
vertex 0 30.5 0
vertex 0 32 0
endloop
endfacet
facet normal 0 0 -1
outer loop
vertex 29.8 32 0
vertex 29.8 30.5 0
vertex 11 30.5 0
endloop
endfacet
facet normal 0 0 -1
outer loop
vertex 29.8 32 0
vertex 11 30.5 0
vertex 11 32 0
endloop
endfacet
facet normal 0 0 -1
outer loop
vertex 2 30.5 0
vertex 2 8.5 0
vertex 0 8.5 0
endloop
endfacet
facet normal 0 0 -1
outer loop
vertex 2 30.5 0
vertex 0 8.5 0
vertex 0 30.5 0
endloop
endfacet
facet normal 0 0 -1
outer loop
vertex 29.8 30.5 0
vertex 29.8 8.5 0
vertex 27.8 8.5 0
endloop
endfacet
facet normal 0 0 -1
outer loop
vertex 29.8 30.5 0
vertex 27.8 8.5 0
vertex 27.8 30.5 0
endloop
endfacet
facet normal 0 0 -1
outer loop
vertex 29.8 8.5 0
vertex 29.8 0 0
vertex 0 0 0
endloop
endfacet
facet normal 0 0 -1
outer loop
vertex 29.8 8.5 0
vertex 0 0 0
vertex 0 8.5 0
endloop
endfacet
facet normal 0 1 0
outer loop
vertex 27.8 4 6.5
vertex 29.8 4 6.5
vertex 29.8 4 3.5
endloop
endfacet
facet normal 0 1 0
outer loop
vertex 27.8 4 6.5
vertex 29.8 4 3.5
vertex 27.8 4 3.5
endloop
endfacet
facet normal 0 -1 0
outer loop
vertex 29.8 8 3.5
vertex 29.8 8 6.5
vertex 27.8 8 6.5
endloop
endfacet
facet normal 0 -1 0
outer loop
vertex 29.8 8 3.5
vertex 27.8 8 6.5
vertex 27.8 8 3.5
endloop
endfacet
facet normal 0 0 1
outer loop
vertex 29.8 3.5 6.5
vertex 29.8 4 6.5
vertex 27.8 4 6.5
endloop
endfacet
facet normal 0 0 1
outer loop
vertex 29.8 3.5 6.5
vertex 27.8 4 6.5
vertex 27.8 3.5 6.5
endloop
endfacet
facet normal 0 0 1
outer loop
vertex 29.8 8 6.5
vertex 29.8 15 6.5
vertex 27.8 15 6.5
endloop
endfacet
facet normal 0 0 1
outer loop
vertex 29.8 8 6.5
vertex 27.8 15 6.5
vertex 27.8 8 6.5
endloop
endfacet
facet normal 0 0 1
outer loop
vertex 29.8 20 6.5
vertex 29.8 31.5 6.5
vertex 27.8 31.5 6.5
endloop
endfacet
facet normal 0 0 1
outer loop
vertex 29.8 20 6.5
vertex 27.8 31.5 6.5
vertex 27.8 20 6.5
endloop
endfacet
facet normal 1 0 0
outer loop
vertex 5.9 37 2
vertex 5.9 37 3.5
vertex 5.9 30.5 3.5
endloop
endfacet
facet normal 1 0 0
outer loop
vertex 5.9 37 2
vertex 5.9 30.5 3.5
vertex 5.9 30.5 2
endloop
endfacet
facet normal -1 0 0
outer loop
vertex 23.9 37 3.5
vertex 23.9 37 2
vertex 23.9 30.5 2
endloop
endfacet
facet normal -1 0 0
outer loop
vertex 23.9 37 3.5
vertex 23.9 30.5 2
vertex 23.9 30.5 3.5
endloop
endfacet
facet normal 0 -1 0
outer loop
vertex 11 32 0
vertex 11 32 2
vertex 7 32 2
endloop
endfacet
facet normal 0 -1 0
outer loop
vertex 11 32 0
vertex 7 32 2
vertex 7 32 0
endloop
endfacet
facet normal 0 -1 0
outer loop
vertex 7 30.5 0
vertex 7 30.5 2
vertex 2 30.5 2
endloop
endfacet
facet normal 0 -1 0
outer loop
vertex 7 30.5 0
vertex 2 30.5 2
vertex 2 30.5 0
endloop
endfacet
facet normal 0 -1 0
outer loop
vertex 27.8 30.5 0
vertex 27.8 30.5 2
vertex 11 30.5 2
endloop
endfacet
facet normal 0 -1 0
outer loop
vertex 27.8 30.5 0
vertex 11 30.5 2
vertex 11 30.5 0
endloop
endfacet
facet normal 0 -1 0
outer loop
vertex 5.9 30.5 2
vertex 5.9 30.5 3.5
vertex 2 30.5 3.5
endloop
endfacet
facet normal 0 -1 0
outer loop
vertex 5.9 30.5 2
vertex 2 30.5 3.5
vertex 2 30.5 2
endloop
endfacet
facet normal 0 -1 0
outer loop
vertex 27.8 30.5 2
vertex 27.8 30.5 3.5
vertex 23.9 30.5 3.5
endloop
endfacet
facet normal 0 -1 0
outer loop
vertex 27.8 30.5 2
vertex 23.9 30.5 3.5
vertex 23.9 30.5 2
endloop
endfacet
facet normal 1 0 0
outer loop
vertex 7 32 0
vertex 7 32 2
vertex 7 30.5 2
endloop
endfacet
facet normal 1 0 0
outer loop
vertex 7 32 0
vertex 7 30.5 2
vertex 7 30.5 0
endloop
endfacet
facet normal -1 0 0
outer loop
vertex 11 32 2
vertex 11 32 0
vertex 11 30.5 0
endloop
endfacet
facet normal -1 0 0
outer loop
vertex 11 32 2
vertex 11 30.5 0
vertex 11 30.5 2
endloop
endfacet
facet normal 1 0 0
outer loop
vertex 1 17 9
vertex 1 17 10
vertex 1 13 10
endloop
endfacet
facet normal 1 0 0
outer loop
vertex 1 17 9
vertex 1 13 10
vertex 1 13 9
endloop
endfacet
facet normal 1 0 0
outer loop
vertex 1 27 9
vertex 1 27 10
vertex 1 23 10
endloop
endfacet
facet normal 1 0 0
outer loop
vertex 1 27 9
vertex 1 23 10
vertex 1 23 9
endloop
endfacet
facet normal 0 1 0
outer loop
vertex 1 23 10
vertex 2 23 10
vertex 2 23 9
endloop
endfacet
facet normal 0 1 0
outer loop
vertex 1 23 10
vertex 2 23 9
vertex 1 23 9
endloop
endfacet
facet normal 0 -1 0
outer loop
vertex 2 27 9
vertex 2 27 10
vertex 1 27 10
endloop
endfacet
facet normal 0 -1 0
outer loop
vertex 2 27 9
vertex 1 27 10
vertex 1 27 9
endloop
endfacet
facet normal 0 0 1
outer loop
vertex 2 13 9
vertex 2 17 9
vertex 1 17 9
endloop
endfacet
facet normal 0 0 1
outer loop
vertex 2 13 9
vertex 1 17 9
vertex 1 13 9
endloop
endfacet
facet normal 0 0 1
outer loop
vertex 2 23 9
vertex 2 27 9
vertex 1 27 9
endloop
endfacet
facet normal 0 0 1
outer loop
vertex 2 23 9
vertex 1 27 9
vertex 1 23 9
endloop
endfacet
facet normal 0 1 0
outer loop
vertex 1 13 10
vertex 2 13 10
vertex 2 13 9
endloop
endfacet
facet normal 0 1 0
outer loop
vertex 1 13 10
vertex 2 13 9
vertex 1 13 9
endloop
endfacet
facet normal 0 -1 0
outer loop
vertex 2 17 9
vertex 2 17 10
vertex 1 17 10
endloop
endfacet
facet normal 0 -1 0
outer loop
vertex 2 17 9
vertex 1 17 10
vertex 1 17 9
endloop
endfacet
facet normal 0 0 -1
outer loop
vertex 29.8 31.5 9
vertex 29.8 20 9
vertex 27.8 20 9
endloop
endfacet
facet normal 0 0 -1
outer loop
vertex 29.8 31.5 9
vertex 27.8 20 9
vertex 27.8 31.5 9
endloop
endfacet
facet normal 0 0 -1
outer loop
vertex 29.8 15 9
vertex 29.8 3.5 9
vertex 27.8 3.5 9
endloop
endfacet
facet normal 0 0 -1
outer loop
vertex 29.8 15 9
vertex 27.8 3.5 9
vertex 27.8 15 9
endloop
endfacet
facet normal -1 0 0
outer loop
vertex 27.8 15 6.5
vertex 27.8 15 9
vertex 27.8 20 9
endloop
endfacet
facet normal -1 0 0
outer loop
vertex 27.8 15 6.5
vertex 27.8 20 9
vertex 27.8 20 6.5
endloop
endfacet
facet normal 0 -1 0
outer loop
vertex 29.8 15 6.5
vertex 29.8 15 9
vertex 27.8 15 9
endloop
endfacet
facet normal 0 -1 0
outer loop
vertex 29.8 15 6.5
vertex 27.8 15 9
vertex 27.8 15 6.5
endloop
endfacet
facet normal 0 1 0
outer loop
vertex 27.8 20 6.5
vertex 27.8 20 9
vertex 29.8 20 9
endloop
endfacet
facet normal 0 1 0
outer loop
vertex 27.8 20 6.5
vertex 29.8 20 9
vertex 29.8 20 6.5
endloop
endfacet
facet normal 1 0 0
outer loop
vertex 2.5 19.5 4.5
vertex 2.5 22.5 4.5
vertex 2.5 22.5 4.7
endloop
endfacet
facet normal 1 0 0
outer loop
vertex 2.5 19.5 4.5
vertex 2.5 22.5 4.7
vertex 2.5 19.5 4.7
endloop
endfacet
facet normal 0 -1 0
outer loop
vertex 2.5 19.5 4.5
vertex 2.5 19.5 4.7
vertex 2 19.5 4.7
endloop
endfacet
facet normal 0 -1 0
outer loop
vertex 2.5 19.5 4.5
vertex 2 19.5 4.7
vertex 2 19.5 4.5
endloop
endfacet
facet normal 0 -1 0
outer loop
vertex 27.8 19.5 4.5
vertex 27.8 19.5 4.7
vertex 27.3 19.5 4.7
endloop
endfacet
facet normal 0 -1 0
outer loop
vertex 27.8 19.5 4.5
vertex 27.3 19.5 4.7
vertex 27.3 19.5 4.5
endloop
endfacet
facet normal 0 1 0
outer loop
vertex 2.5 22.5 4.7
vertex 2.5 22.5 4.5
vertex 2 22.5 4.5
endloop
endfacet
facet normal 0 1 0
outer loop
vertex 2.5 22.5 4.7
vertex 2 22.5 4.5
vertex 2 22.5 4.7
endloop
endfacet
facet normal 0 1 0
outer loop
vertex 27.8 22.5 4.7
vertex 27.8 22.5 4.5
vertex 27.3 22.5 4.5
endloop
endfacet
facet normal 0 1 0
outer loop
vertex 27.8 22.5 4.7
vertex 27.3 22.5 4.5
vertex 27.3 22.5 4.7
endloop
endfacet
facet normal 0 0 -1
outer loop
vertex 2.5 22.5 4.5
vertex 2.5 19.5 4.5
vertex 2 19.5 4.5
endloop
endfacet
facet normal 0 0 -1
outer loop
vertex 2.5 22.5 4.5
vertex 2 19.5 4.5
vertex 2 22.5 4.5
endloop
endfacet
facet normal 0 0 -1
outer loop
vertex 27.8 22.5 4.5
vertex 27.8 19.5 4.5
vertex 27.3 19.5 4.5
endloop
endfacet
facet normal 0 0 -1
outer loop
vertex 27.8 22.5 4.5
vertex 27.3 19.5 4.5
vertex 27.3 22.5 4.5
endloop
endfacet
facet normal 0 0 1
outer loop
vertex 2.5 19.5 4.7
vertex 2.5 22.5 4.7
vertex 2 22.5 4.7
endloop
endfacet
facet normal 0 0 1
outer loop
vertex 2.5 19.5 4.7
vertex 2 22.5 4.7
vertex 2 19.5 4.7
endloop
endfacet
facet normal 0 0 1
outer loop
vertex 27.8 19.5 4.7
vertex 27.8 22.5 4.7
vertex 27.3 22.5 4.7
endloop
endfacet
facet normal 0 0 1
outer loop
vertex 27.8 19.5 4.7
vertex 27.3 22.5 4.7
vertex 27.3 19.5 4.7
endloop
endfacet
facet normal -1 0 0
outer loop
vertex 27.3 19.5 4.5
vertex 27.3 19.5 4.7
vertex 27.3 22.5 4.7
endloop
endfacet
facet normal -1 0 0
outer loop
vertex 27.3 19.5 4.5
vertex 27.3 22.5 4.7
vertex 27.3 22.5 4.5
endloop
endfacet
endsolid csg.js
