solid csg.js
facet normal -1 0 0
outer loop
vertex 0 0 0
vertex 0 0 3
vertex 0 3 3
endloop
endfacet
facet normal -1 0 0
outer loop
vertex 0 0 0
vertex 0 3 3
vertex 0 3 0
endloop
endfacet
facet normal 1 0 0
outer loop
vertex 4 4 0
vertex 4 4 3
vertex 4 -1 3
endloop
endfacet
facet normal 1 0 0
outer loop
vertex 4 4 0
vertex 4 -1 3
vertex 4 -1 0
endloop
endfacet
facet normal 0 0 -1
outer loop
vertex 4 4 0
vertex 4 3 0
vertex 3.5 3 0
endloop
endfacet
facet normal 0 0 -1
outer loop
vertex 4 4 0
vertex 3.5 3 0
vertex 3.5 4 0
endloop
endfacet
facet normal 0 0 -1
outer loop
vertex 4 3 0
vertex 4 0 0
vertex 0 0 0
endloop
endfacet
facet normal 0 0 -1
outer loop
vertex 4 3 0
vertex 0 0 0
vertex 0 3 0
endloop
endfacet
facet normal 0 0 -1
outer loop
vertex 4 0 0
vertex 4 -1 0
vertex 3.5 -1 0
endloop
endfacet
facet normal 0 0 -1
outer loop
vertex 4 0 0
vertex 3.5 -1 0
vertex 3.5 0 0
endloop
endfacet
facet normal 0 0 1
outer loop
vertex 4 -1 3
vertex 4 0 3
vertex 3.5 0 3
endloop
endfacet
facet normal 0 0 1
outer loop
vertex 4 -1 3
vertex 3.5 0 3
vertex 3.5 -1 3
endloop
endfacet
facet normal 0 0 1
outer loop
vertex 4 0 3
vertex 4 3 3
vertex 0 3 3
endloop
endfacet
facet normal 0 0 1
outer loop
vertex 4 0 3
vertex 0 3 3
vertex 0 0 3
endloop
endfacet
facet normal 0 0 1
outer loop
vertex 4 3 3
vertex 4 4 3
vertex 3.5 4 3
endloop
endfacet
facet normal 0 0 1
outer loop
vertex 4 3 3
vertex 3.5 4 3
vertex 3.5 3 3
endloop
endfacet
facet normal 0 -1 0
outer loop
vertex 0 0 0
vertex 3.5 0 0
vertex 3.5 0 3
endloop
endfacet
facet normal 0 -1 0
outer loop
vertex 0 0 0
vertex 3.5 0 3
vertex 0 0 3
endloop
endfacet
facet normal 0 1 0
outer loop
vertex 0 3 0
vertex 0 3 3
vertex 3.5 3 3
endloop
endfacet
facet normal 0 1 0
outer loop
vertex 0 3 0
vertex 3.5 3 3
vertex 3.5 3 0
endloop
endfacet
facet normal 0 -1 0
outer loop
vertex 3.5 -1 0
vertex 4 -1 0
vertex 4 -1 3
endloop
endfacet
facet normal 0 -1 0
outer loop
vertex 3.5 -1 0
vertex 4 -1 3
vertex 3.5 -1 3
endloop
endfacet
facet normal 0 1 0
outer loop
vertex 3.5 4 0
vertex 3.5 4 3
vertex 4 4 3
endloop
endfacet
facet normal 0 1 0
outer loop
vertex 3.5 4 0
vertex 4 4 3
vertex 4 4 0
endloop
endfacet
facet normal -1 0 0
outer loop
vertex 3.5 0 3
vertex 3.5 0 0
vertex 3.5 -1 0
endloop
endfacet
facet normal -1 0 0
outer loop
vertex 3.5 0 3
vertex 3.5 -1 0
vertex 3.5 -1 3
endloop
endfacet
facet normal -1 0 0
outer loop
vertex 3.5 4 3
vertex 3.5 4 0
vertex 3.5 3 0
endloop
endfacet
facet normal -1 0 0
outer loop
vertex 3.5 4 3
vertex 3.5 3 0
vertex 3.5 3 3
endloop
endfacet
endsolid csg.js
