solid csg.js
facet normal 1 0 0
outer loop
vertex 29.8 0 0
vertex 29.8 39 0
vertex 29.8 39 1
endloop
endfacet
facet normal 1 0 0
outer loop
vertex 29.8 0 0
vertex 29.8 39 1
vertex 29.8 0 1
endloop
endfacet
facet normal 0 -1 0
outer loop
vertex 0 0 0
vertex 29.8 0 0
vertex 29.8 0 1
endloop
endfacet
facet normal 0 -1 0
outer loop
vertex 0 0 0
vertex 29.8 0 1
vertex 0 0 1
endloop
endfacet
facet normal 0 1 0
outer loop
vertex 0 39 0
vertex 0 39 1
vertex 29.8 39 1
endloop
endfacet
facet normal 0 1 0
outer loop
vertex 0 39 0
vertex 29.8 39 1
vertex 29.8 39 0
endloop
endfacet
facet normal 1 0 0
outer loop
vertex 9.8 29 0
vertex 9.8 29 1
vertex 9.8 5 1
endloop
endfacet
facet normal 1 0 0
outer loop
vertex 9.8 29 0
vertex 9.8 5 1
vertex 9.8 5 0
endloop
endfacet
facet normal -1 0 0
outer loop
vertex 22.8 5 1
vertex 22.8 29 1
vertex 22.8 29 0
endloop
endfacet
facet normal -1 0 0
outer loop
vertex 22.8 5 1
vertex 22.8 29 0
vertex 22.8 5 0
endloop
endfacet
facet normal 0 1 0
outer loop
vertex 9.8 5 1
vertex 22.8 5 1
vertex 22.8 5 0
endloop
endfacet
facet normal 0 1 0
outer loop
vertex 9.8 5 1
vertex 22.8 5 0
vertex 9.8 5 0
endloop
endfacet
facet normal 0 -1 0
outer loop
vertex 22.8 29 0
vertex 22.8 29 1
vertex 9.8 29 1
endloop
endfacet
facet normal 0 -1 0
outer loop
vertex 22.8 29 0
vertex 9.8 29 1
vertex 9.8 29 0
endloop
endfacet
facet normal 0 0 -1
outer loop
vertex 29.8 39 0
vertex 29.8 32 0
vertex 0 32 0
endloop
endfacet
facet normal 0 0 -1
outer loop
vertex 29.8 39 0
vertex 0 32 0
vertex 0 39 0
endloop
endfacet
facet normal 0 0 -1
outer loop
vertex 29.8 32 0
vertex 29.8 29 0
vertex -2 29 0
endloop
endfacet
facet normal 0 0 -1
outer loop
vertex 29.8 32 0
vertex -2 29 0
vertex -2 32 0
endloop
endfacet
facet normal 0 0 -1
outer loop
vertex 9.8 29 0
vertex 9.8 24 0
vertex -2 24 0
endloop
endfacet
facet normal 0 0 -1
outer loop
vertex 9.8 29 0
vertex -2 24 0
vertex -2 29 0
endloop
endfacet
facet normal 0 0 -1
outer loop
vertex 9.8 24 0
vertex 9.8 5 0
vertex 0 5 0
endloop
endfacet
facet normal 0 0 -1
outer loop
vertex 9.8 24 0
vertex 0 5 0
vertex 0 24 0
endloop
endfacet
facet normal 0 0 -1
outer loop
vertex 29.8 29 0
vertex 29.8 5 0
vertex 22.8 5 0
endloop
endfacet
facet normal 0 0 -1
outer loop
vertex 29.8 29 0
vertex 22.8 5 0
vertex 22.8 29 0
endloop
endfacet
facet normal 0 0 -1
outer loop
vertex 29.8 5 0
vertex 29.8 0 0
vertex 0 0 0
endloop
endfacet
facet normal 0 0 -1
outer loop
vertex 29.8 5 0
vertex 0 0 0
vertex 0 5 0
endloop
endfacet
facet normal 0 0 1
outer loop
vertex 29.8 0 1
vertex 29.8 2.1 1
vertex 0 2.1 1
endloop
endfacet
facet normal 0 0 1
outer loop
vertex 29.8 0 1
vertex 0 2.1 1
vertex 0 0 1
endloop
endfacet
facet normal 0 0 1
outer loop
vertex 2.1 2.1 1
vertex 2.0999999999999996 3.6 1
vertex 0 3.6 1
endloop
endfacet
facet normal 0 0 1
outer loop
vertex 2.1 2.1 1
vertex 0 3.6 1
vertex 0 2.1 1
endloop
endfacet
facet normal 0 0 1
outer loop
vertex 23.7 2.1 1
vertex 23.7 3.6 1
vertex 6.1 3.6 1
endloop
endfacet
facet normal 0 0 1
outer loop
vertex 23.7 2.1 1
vertex 6.1 3.6 1
vertex 6.1 2.1 1
endloop
endfacet
facet normal 0 0 1
outer loop
vertex 29.8 2.1 1
vertex 29.8 3.6 1
vertex 27.7 3.6 1
endloop
endfacet
facet normal 0 0 1
outer loop
vertex 29.8 2.1 1
vertex 27.7 3.6 1
vertex 27.7 2.1 1
endloop
endfacet
facet normal 0 0 1
outer loop
vertex 29.8 3.6 1
vertex 29.8 5 1
vertex 0 5 1
endloop
endfacet
facet normal 0 0 1
outer loop
vertex 29.8 3.6 1
vertex 0 5 1
vertex 0 3.6 1
endloop
endfacet
facet normal 0 0 1
outer loop
vertex 9.8 5 1
vertex 9.8 24 1
vertex 0 24 1
endloop
endfacet
facet normal 0 0 1
outer loop
vertex 9.8 5 1
vertex 0 24 1
vertex 0 5 1
endloop
endfacet
facet normal 0 0 1
outer loop
vertex 9.8 24 1
vertex 9.8 29 1
vertex -2 29 1
endloop
endfacet
facet normal 0 0 1
outer loop
vertex 9.8 24 1
vertex -2 29 1
vertex -2 24 1
endloop
endfacet
facet normal 0 0 1
outer loop
vertex 29.8 5 1
vertex 29.8 29 1
vertex 22.8 29 1
endloop
endfacet
facet normal 0 0 1
outer loop
vertex 29.8 5 1
vertex 22.8 29 1
vertex 22.8 5 1
endloop
endfacet
facet normal 0 0 1
outer loop
vertex 29.8 29 1
vertex 29.8 32 1
vertex -2 32 1
endloop
endfacet
facet normal 0 0 1
outer loop
vertex 29.8 29 1
vertex -2 32 1
vertex -2 29 1
endloop
endfacet
facet normal 0 0 1
outer loop
vertex 29.8 32 1
vertex 29.8 32.9 1
vertex 0 32.9 1
endloop
endfacet
facet normal 0 0 1
outer loop
vertex 29.8 32 1
vertex 0 32.9 1
vertex 0 32 1
endloop
endfacet
facet normal 0 0 1
outer loop
vertex 2 32.9 1
vertex 2 36.9 1
vertex 0 36.9 1
endloop
endfacet
facet normal 0 0 1
outer loop
vertex 2 32.9 1
vertex 0 36.9 1
vertex 0 32.9 1
endloop
endfacet
facet normal 0 0 1
outer loop
vertex 23.7 32.9 1
vertex 23.7 36.9 1
vertex 6 36.9 1
endloop
endfacet
facet normal 0 0 1
outer loop
vertex 23.7 32.9 1
vertex 6 36.9 1
vertex 6 32.9 1
endloop
endfacet
facet normal 0 0 1
outer loop
vertex 29.8 32.9 1
vertex 29.8 36.9 1
vertex 27.7 36.9 1
endloop
endfacet
facet normal 0 0 1
outer loop
vertex 29.8 32.9 1
vertex 27.7 36.9 1
vertex 27.7 32.9 1
endloop
endfacet
facet normal 0 0 1
outer loop
vertex 29.8 36.9 1
vertex 29.8 39 1
vertex 0 39 1
endloop
endfacet
facet normal 0 0 1
outer loop
vertex 29.8 36.9 1
vertex 0 39 1
vertex 0 36.9 1
endloop
endfacet
facet normal -1 0 0
outer loop
vertex 2.1 2.1 1
vertex 2.1 2.1 4
vertex 2.1 3.6 4
endloop
endfacet
facet normal -1 0 0
outer loop
vertex 2.1 2.1 1
vertex 2.1 3.6 4
vertex 2.0999999999999996 3.6 1
endloop
endfacet
facet normal 1 0 0
outer loop
vertex 6.1 2.1 1
vertex 6.1 3.6 1
vertex 6.1 3.6 4
endloop
endfacet
facet normal 1 0 0
outer loop
vertex 6.1 2.1 1
vertex 6.1 3.6 4
vertex 6.1 2.1 4
endloop
endfacet
facet normal 0 -1 0
outer loop
vertex 6.1 2.1 1
vertex 6.1 2.1 4
vertex 2.1 2.1 4
endloop
endfacet
facet normal 0 -1 0
outer loop
vertex 6.1 2.1 1
vertex 2.1 2.1 4
vertex 2.1 2.1 1
endloop
endfacet
facet normal 0 -1 0
outer loop
vertex 27.7 2.1 1
vertex 27.7 2.1 4
vertex 23.7 2.1 4
endloop
endfacet
facet normal 0 -1 0
outer loop
vertex 27.7 2.1 1
vertex 23.7 2.1 4
vertex 23.7 2.1 1
endloop
endfacet
facet normal 0 1 0
outer loop
vertex 6.1 3.6 4
vertex 6.1 3.6 1
vertex 2.0999999999999996 3.6 1
endloop
endfacet
facet normal 0 1 0
outer loop
vertex 6.1 3.6 4
vertex 2.0999999999999996 3.6 1
vertex 2.1 3.6 4
endloop
endfacet
facet normal 0 1 0
outer loop
vertex 27.7 3.6 4
vertex 27.7 3.6 1
vertex 23.7 3.6 1
endloop
endfacet
facet normal 0 1 0
outer loop
vertex 27.7 3.6 4
vertex 23.7 3.6 1
vertex 23.7 3.6 4
endloop
endfacet
facet normal 0 0 1
outer loop
vertex 6.1 2.1 4
vertex 6.1 3.6 4
vertex 2.1 3.6 4
endloop
endfacet
facet normal 0 0 1
outer loop
vertex 6.1 2.1 4
vertex 2.1 3.6 4
vertex 2.1 2.1 4
endloop
endfacet
facet normal 0 0 1
outer loop
vertex 27.7 2.1 4
vertex 27.7 3.6 4
vertex 23.7 3.6 4
endloop
endfacet
facet normal 0 0 1
outer loop
vertex 27.7 2.1 4
vertex 23.7 3.6 4
vertex 23.7 2.1 4
endloop
endfacet
facet normal 0 0 1
outer loop
vertex 6 32.9 4
vertex 6 36.9 4
vertex 2 36.9 4
endloop
endfacet
facet normal 0 0 1
outer loop
vertex 6 32.9 4
vertex 2 36.9 4
vertex 2 32.9 4
endloop
endfacet
facet normal 0 0 1
outer loop
vertex 27.7 32.9 4
vertex 27.7 36.9 4
vertex 23.7 36.9 4
endloop
endfacet
facet normal 0 0 1
outer loop
vertex 27.7 32.9 4
vertex 23.7 36.9 4
vertex 23.7 32.9 4
endloop
endfacet
facet normal -1 0 0
outer loop
vertex 23.7 3.6 4
vertex 23.7 3.6 1
vertex 23.7 2.1 1
endloop
endfacet
facet normal -1 0 0
outer loop
vertex 23.7 3.6 4
vertex 23.7 2.1 1
vertex 23.7 2.1 4
endloop
endfacet
facet normal -1 0 0
outer loop
vertex 23.7 36.9 4
vertex 23.7 36.9 1
vertex 23.7 32.9 1
endloop
endfacet
facet normal -1 0 0
outer loop
vertex 23.7 36.9 4
vertex 23.7 32.9 1
vertex 23.7 32.9 4
endloop
endfacet
facet normal 1 0 0
outer loop
vertex 27.7 3.6 1
vertex 27.7 3.6 4
vertex 27.7 2.1 4
endloop
endfacet
facet normal 1 0 0
outer loop
vertex 27.7 3.6 1
vertex 27.7 2.1 4
vertex 27.7 2.1 1
endloop
endfacet
facet normal 1 0 0
outer loop
vertex 27.7 36.9 1
vertex 27.7 36.9 4
vertex 27.7 32.9 4
endloop
endfacet
facet normal 1 0 0
outer loop
vertex 27.7 36.9 1
vertex 27.7 32.9 4
vertex 27.7 32.9 1
endloop
endfacet
facet normal 0 -1 0
outer loop
vertex 6 32.9 1
vertex 6 32.9 4
vertex 2 32.9 4
endloop
endfacet
facet normal 0 -1 0
outer loop
vertex 6 32.9 1
vertex 2 32.9 4
vertex 2 32.9 1
endloop
endfacet
facet normal 0 -1 0
outer loop
vertex 27.7 32.9 1
vertex 27.7 32.9 4
vertex 23.7 32.9 4
endloop
endfacet
facet normal 0 -1 0
outer loop
vertex 27.7 32.9 1
vertex 23.7 32.9 4
vertex 23.7 32.9 1
endloop
endfacet
facet normal 0 1 0
outer loop
vertex 6 36.9 4
vertex 6 36.9 1
vertex 2 36.9 1
endloop
endfacet
facet normal 0 1 0
outer loop
vertex 6 36.9 4
vertex 2 36.9 1
vertex 2 36.9 4
endloop
endfacet
facet normal 0 1 0
outer loop
vertex 27.7 36.9 4
vertex 27.7 36.9 1
vertex 23.7 36.9 1
endloop
endfacet
facet normal 0 1 0
outer loop
vertex 27.7 36.9 4
vertex 23.7 36.9 1
vertex 23.7 36.9 4
endloop
endfacet
facet normal -1 0 0
outer loop
vertex 2 32.9 1
vertex 2 32.9 4
vertex 2 36.9 4
endloop
endfacet
facet normal -1 0 0
outer loop
vertex 2 32.9 1
vertex 2 36.9 4
vertex 2 36.9 1
endloop
endfacet
facet normal 1 0 0
outer loop
vertex 6 32.9 1
vertex 6 36.9 1
vertex 6 36.9 4
endloop
endfacet
facet normal 1 0 0
outer loop
vertex 6 32.9 1
vertex 6 36.9 4
vertex 6 32.9 4
endloop
endfacet
facet normal -1 0 0
outer loop
vertex 0 24 1
vertex 0 24 0
vertex 0 0 0
endloop
endfacet
facet normal -1 0 0
outer loop
vertex 0 24 1
vertex 0 0 0
vertex 0 0 1
endloop
endfacet
facet normal -1 0 0
outer loop
vertex 0 39 1
vertex 0 39 0
vertex 0 32 0
endloop
endfacet
facet normal -1 0 0
outer loop
vertex 0 39 1
vertex 0 32 0
vertex 0 32 1
endloop
endfacet
facet normal -1 0 0
outer loop
vertex -2 24 0
vertex -2 24 1
vertex -2 32 1
endloop
endfacet
facet normal -1 0 0
outer loop
vertex -2 24 0
vertex -2 32 1
vertex -2 32 0
endloop
endfacet
facet normal 0 -1 0
outer loop
vertex -2 24 0
vertex 0 24 0
vertex 0 24 1
endloop
endfacet
facet normal 0 -1 0
outer loop
vertex -2 24 0
vertex 0 24 1
vertex -2 24 1
endloop
endfacet
facet normal 0 1 0
outer loop
vertex -2 32 0
vertex -2 32 1
vertex 0 32 1
endloop
endfacet
facet normal 0 1 0
outer loop
vertex -2 32 0
vertex 0 32 1
vertex 0 32 0
endloop
endfacet
endsolid csg.js
